<?xml version="1.0" standalone="no"?>
<!DOCTYPE svg PUBLIC "-//W3C//DTD SVG 20010904//EN"
 "http://www.w3.org/TR/2001/REC-SVG-20010904/DTD/svg10.dtd">
<svg version="1.0" xmlns="http://www.w3.org/2000/svg"
 width="800.000000pt" height="800.000000pt" viewBox="0 0 800.000000 800.000000"
 preserveAspectRatio="xMidYMid meet">

<g transform="translate(0.000000,800.000000) scale(0.100000,-0.100000)"
fill="#2DA0DC" stroke="none">
<path d="M3070 7718 c-126 -85 -62 -279 122 -366 80 -38 686 -232 726 -232 56
0 -101 246 -236 370 -160 147 -342 239 -492 247 -77 5 -88 3 -120 -19z"/>
<path d="M4715 7707 c-199 -66 -416 -229 -561 -422 -57 -77 -106 -163 -99
-175 6 -9 75 3 169 31 190 56 538 172 596 200 164 77 243 261 151 353 -29 29
-37 31 -109 33 -59 2 -93 -2 -147 -20z"/>
<path d="M3333 7055 c-238 -43 -542 -165 -752 -302 -217 -141 -436 -366 -578
-594 -143 -230 -262 -551 -312 -849 -18 -106 -46 -399 -39 -405 2 -1 48 -12
103 -24 503 -106 1704 -210 2446 -211 l127 0 11 93 c49 410 86 1022 78 1292
-7 222 -20 334 -53 465 -83 326 -262 480 -624 535 -115 18 -309 18 -407 0z"/>
<path d="M4287 7053 c-27 -4 -27 -4 21 -42 180 -142 288 -364 323 -662 30
-261 -12 -1254 -67 -1579 -7 -47 -14 -87 -14 -90 0 -6 113 -3 425 10 361 16
718 46 1080 91 204 25 218 28 211 44 -3 8 -17 114 -31 237 -30 254 -60 410
-111 583 -254 858 -876 1366 -1724 1408 -47 2 -97 2 -113 0z"/>
<path d="M1239 4552 c-474 -345 -613 -453 -662 -515 l-31 -37 28 -29 c38 -39
137 -83 286 -126 615 -177 1420 -195 2013 -45 240 61 571 203 799 342 111 67
475 331 462 334 -5 2 -173 8 -374 14 -657 19 -1242 68 -1660 141 -171 29 -512
102 -555 119 -19 7 -66 -23 -306 -198z"/>
<path d="M6236 4624 c-218 -53 -794 -109 -1361 -134 -132 -5 -277 -13 -321
-16 l-82 -6 -75 -63 c-42 -35 -106 -84 -144 -111 -37 -26 -72 -51 -77 -55 -5
-5 78 -6 185 -2 371 11 710 -34 1053 -139 166 -51 319 -112 596 -238 363 -165
525 -210 755 -210 150 0 280 25 365 71 34 18 64 39 67 46 9 24 -58 99 -229
258 -308 286 -623 581 -637 598 -16 20 -18 20 -95 1z"/>
<path d="M4155 4044 c-22 -2 -98 -11 -170 -20 l-130 -16 -145 -78 c-312 -169
-598 -276 -893 -335 -237 -47 -351 -59 -574 -59 -106 -1 -189 -4 -185 -8 24
-23 175 -93 277 -128 440 -151 1088 -232 1735 -216 896 21 1544 181 1773 436
26 29 47 55 47 60 0 11 -290 147 -419 195 -197 74 -361 117 -571 150 -77 13
-184 18 -405 20 -165 2 -318 1 -340 -1z"/>
<path d="M6152 3583 c-1 -6 -29 -38 -61 -71 -229 -232 -737 -416 -1371 -496
-542 -68 -1162 -60 -1724 24 -571 84 -985 241 -1170 441 l-57 61 3 -388 c3
-388 3 -389 27 -437 133 -269 626 -474 1356 -566 320 -40 431 -46 855 -46 433
1 562 9 885 56 635 91 1103 304 1228 558 l32 66 3 330 c3 290 0 503 -6 468z"/>
<path d="M6079 2376 c-316 -293 -1008 -481 -1864 -504 -442 -13 -821 8 -1177
63 -600 93 -992 239 -1206 448 l-63 62 3 -365 3 -365 29 -54 c171 -326 888
-565 1860 -621 547 -31 1148 16 1576 125 511 129 843 327 905 539 13 43 15
114 13 398 l-3 345 -76 -71z"/>
<path d="M1773 1160 l2 -295 27 -58 c108 -231 569 -452 1171 -562 637 -116
1468 -112 2066 10 582 118 969 313 1084 545 l32 64 3 296 3 295 -29 -41 c-67
-92 -197 -184 -386 -274 -347 -165 -815 -265 -1401 -301 -244 -14 -717 -7
-930 16 -741 78 -1298 257 -1566 503 -31 28 -60 48 -64 44 -5 -4 -5 -1 -1 5 4
7 2 21 -3 30 -8 13 -10 -68 -8 -277z"/>
</g>
</svg>
